<?xml version="1.0" encoding="UTF-8" standalone="no"?><!DOCTYPE svg PUBLIC "-//W3C//DTD SVG 1.1//EN" "http://www.w3.org/Graphics/SVG/1.1/DTD/svg11.dtd"><svg width="100%" height="100%" viewBox="0 0 2828 1773" version="1.1" xmlns="http://www.w3.org/2000/svg" xmlns:xlink="http://www.w3.org/1999/xlink" xml:space="preserve" xmlns:serif="http://www.serif.com/" style="fill-rule:evenodd;clip-rule:evenodd;stroke-linejoin:round;stroke-miterlimit:2;"><g id="Background"><path d="M2717.241,1772.38l-8.297,0c-1.276,-0.263 -1.414,-2.572 -2.69,-2.835c-0.893,-0.184 -1857.463,-0.032 -2018.982,-0.018c-5.541,0.001 -11.082,0.002 -16.623,0.003c-5.089,0.01 -4.548,2.357 -5.502,2.851l-8.297,0c-1.316,-0.356 -1.682,-2.427 -2.998,-2.783c-3.676,-0.996 -4.147,2.066 -22.11,-3.453c-47.185,-14.497 -46.132,-18.814 -224.072,-196.756c-376.345,-376.352 -378.432,-375.418 -391.463,-401.785c-18.571,-37.576 -16.099,-39.393 -16.099,-253.946c0,-358.274 -0.138,-358.636 1.075,-359.817c3.885,-3.784 421.978,2.748 456.372,-3.504c46.953,-8.535 98.337,-49.4 101.359,-117.944c1.23,-27.892 -1.547,-427.953 1.524,-431.08c1.391,-1.417 1.959,-1.308 2021.286,-1.301c9.853,0 13.059,-0.655 13.124,9.29c0.228,35.186 2.705,417.397 -1.479,439.831c-7.98,42.78 -45.043,103.674 -127.804,103.876c-213.521,0.522 -1781.56,-1.165 -1794.911,0.959c-129.056,20.53 -111.212,151.235 -111.212,177.16c-0,402.01 -0.364,403.524 2.901,404.75c5.217,1.959 1092.705,-0.78 1098.578,1.443c6.957,2.633 372.558,375.762 381.352,377.358c2.406,0.436 226.401,0.196 227.129,0.128c4.978,-0.467 4.359,-3.421 4.359,-222.256c0,-476.704 -0.128,-476.974 1.034,-478.413c1.661,-2.057 2.345,-1.832 519.883,-1.832c11.225,0 30.597,-2.039 31.61,4.229c0.112,0.691 0.1,0.57 0.1,799.594c0,10.819 15.247,115.629 -86.743,150.14c-14.848,5.024 -16.414,2.522 -19.382,3.345c-1.317,0.365 -1.706,2.405 -3.023,2.77Z" style="fill:#000000;fill-opacity:1;"/><path d="M2708.944,1772.38l-2043.797,0c0.954,-0.494 0.413,-2.841 5.502,-2.851c5.541,-0.001 11.082,-0.002 16.623,-0.003c161.519,-0.013 2018.089,-0.166 2018.982,0.018c1.276,0.263 1.414,2.572 2.69,2.835Z" style="fill:#000000;fill-opacity:0.84;"/></g></svg>